# xmcd CD database file
#
# Track frame offsets:
#	150
#	3563
#	6829
#	10372
#	13695
#	17106
#	20210
#	24649
#	28136
#	30583
#	32682
#	34953
#	38104
#	40838
#	44592
#	49078
#	51838
#	53554
#	55330
#	57179
#	59272
#	63543
#	67665
#	72935
#	75051
#	78816
#	81242
#	85718
#	90144
#	94720
#	99175
#	103752
#	107500
#	112494
#	118062
#	123011
#	126959
#	130951
#	134028
#	136364
#	138736
#	142195
#	145298
#
# Disc length: 1966 seconds
#
# Revision: 0
# Processed by: cddbd v1.5.1PL0 Copyright (c) Steve Scherf et al.
# Submitted via: CDex 1.40Release
#
DISCID=5407ac2b
DTITLE=Marks, Dauenhauers and Edwards - Lingit X_'enax_ Ax_! - 1/2
DYEAR=2005
DGENRE=Native American
TTITLE0=Bed Time
TTITLE1=Bed Time
TTITLE2=Body Parts
TTITLE3=Body Parts
TTITLE4=Body Parts
TTITLE5=Body Parts
TTITLE6=Color
TTITLE7=Color
TTITLE8=Color
TTITLE9=Color
TTITLE10=Color
TTITLE11=Coming And Going
TTITLE12=Coming And Going
TTITLE13=Coming And Going
TTITLE14=Coming And Going
TTITLE15=Coming And Going
TTITLE16=Doing
TTITLE17=Doing
TTITLE18=Doing
TTITLE19=Doing
TTITLE20=Feelings
TTITLE21=Feelings
TTITLE22=Feelings
TTITLE23=Greetings And Departures
TTITLE24=Greetings And Departures
TTITLE25=Greetings And Departures
TTITLE26=Greetings And Departures
TTITLE27=Greetings And Departures
TTITLE28=Greetings And Departures
TTITLE29=Greetings And Departures
TTITLE30=Greetings And Departures
TTITLE31=Introductions
TTITLE32=Introductions
TTITLE33=Introductions
TTITLE34=Kinship
TTITLE35=Kinship
TTITLE36=Kinship
TTITLE37=Kinship
TTITLE38=Kinship
TTITLE39=Kinship
TTITLE40=Kinship
TTITLE41=Kinship
TTITLE42=Kinship
EXTD=YEAR: 2005 ID3G: 64
EXTT0=
EXTT1=
EXTT2=
EXTT3=
EXTT4=
EXTT5=
EXTT6=
EXTT7=
EXTT8=
EXTT9=
EXTT10=
EXTT11=
EXTT12=
EXTT13=
EXTT14=
EXTT15=
EXTT16=
EXTT17=
EXTT18=
EXTT19=
EXTT20=
EXTT21=
EXTT22=
EXTT23=
EXTT24=
EXTT25=
EXTT26=
EXTT27=
EXTT28=
EXTT29=
EXTT30=
EXTT31=
EXTT32=
EXTT33=
EXTT34=
EXTT35=
EXTT36=
EXTT37=
EXTT38=
EXTT39=
EXTT40=
EXTT41=
EXTT42=
PLAYORDER=
